<?xml version="1.0" encoding="utf-8"?>
<!-- Generator: Adobe Illustrator 23.0.0, SVG Export Plug-In . SVG Version: 6.00 Build 0)  -->
<svg version="1.1" id="Layer_1" xmlns="http://www.w3.org/2000/svg" xmlns:xlink="http://www.w3.org/1999/xlink" x="0px" y="0px"
	 viewBox="0 0 723.89 354.51" style="enable-background:new 0 0 723.89 354.51;" xml:space="preserve">
<style type="text/css">
	.st0{font-family:'MyriadPro-Regular';}
	.st1{font-size:148.201px;}
</style>
<g>
	<path d="M298.14,284.24c-19.48,39.39-38.82,56.94-81.33,68.14c-14.29,3.77-22.56,1.67-36.26,0.12
		c45.72-9.95,76.26-21.2,99.07-64.73c-27.81-18.7-45.77-38.28-45.96-72.97c-0.18-34.7,16.83-51.2,39.51-73.88
		c-27.3-27.26-56.89-40.6-95.38-32.36c-8.16,1.74-13.1,4.94-20.29,6.77c-16.11,4.1-30.48,3.03-45.55-2.68
		c-16.83-6.38-30.11-13.63-48.36-11.33c-11.06,1.4-21.05,7.99-31.64,11c15.16-16.27,35.92-25.77,57.89-22.03
		c13.4,2.28,22.42,8.83,34.52,12.7c16.41,5.25,28.87,6.3,45.75,1.77c17.89-4.8,31-12.67,51.37-11.08
		c25.79,2.02,52.6,18.16,69.7,38.27C235.9,182.33,234.22,241.04,298.14,284.24z"/>
</g>
<path d="M215.39,0c2.41,32.98-10.7,58.02-34.48,78.6c12.16-19.77,21.96-40.12,18.01-66.43c-11.55,3.65-22.54,7.12-33.54,10.6
	C179.4,10.2,194.88,1.05,215.39,0z"/>
<text transform="matrix(1 0 0 1 -10.8494 271.7596)" class="st0 st1">NY</text>
<text transform="matrix(1 0 0 1 331.04 268.1039)" class="st0 st1">STORE</text>
</svg>
